Coordinates
version=1
nRows=9
nColumns=24
inDegrees=yes

Units are S.I. units (second, meters, Newtons, ...)
If the header above contains a line with 'inDegrees', this indicates whether rotational values are in degrees (yes) or radians (no).

endheader
time	pelvis_tilt	pelvis_list	pelvis_rotation	pelvis_tx	pelvis_ty	pelvis_tz	hip_flexion_r	hip_adduction_r	hip_rotation_r	knee_angle_r	ankle_angle_r	subtalar_angle_r	mtp_angle_r	hip_flexion_l	hip_adduction_l	hip_rotation_l	knee_angle_l	ankle_angle_l	subtalar_angle_l	mtp_angle_l	lumbar_extension	lumbar_bending	lumbar_rotation
      4.37000000	      4.52364909	    -24.92461349	    -94.32591329	     -0.21383479	      0.95712364	     -3.43299006	    -24.89640144	    -15.52726874	    -10.91963484	    -52.42695900	    -22.85860565	      2.26354085	      0.00000000	     -3.41772766	      7.12018174	     -9.06086555	    -19.70497941	      2.34152078	     -0.51726217	      0.00000000	    -44.81433782	     -6.44878148	      5.18027152
      4.38000000	      4.27736310	    -24.99119637	    -94.69191221	     -0.21362330	      0.95911958	     -3.42390615	    -23.53539377	    -15.45319694	    -10.03538821	    -53.94070088	    -20.98333628	      1.29934881	      0.00000000	     -4.28481484	      7.10911613	     -9.07450130	    -19.39496187	      2.53249287	     -0.86450905	      0.00000000	    -44.91959930	     -6.37409468	      5.27468402
      4.39000000	      3.96058335	    -24.96585527	    -95.17354622	     -0.21329466	      0.96164205	     -3.41167112	    -21.56320231	    -15.30915443	     -8.87919388	    -55.84081672	    -18.50003621	      0.19067555	      0.00000000	     -5.33058918	      7.14067331	     -8.89761129	    -18.96501098	      2.78656467	     -1.59685357	      0.00000000	    -44.93902503	     -6.27032525	      5.40255584
      4.40000000	      3.56875932	    -24.88522057	    -95.73322124	     -0.21299240	      0.96445339	     -3.39764997	    -19.24401432	    -15.02697912	     -7.57878788	    -57.78375558	    -15.78597145	     -0.82163136	      0.00000000	     -6.49789176	      7.15775048	     -8.61122478	    -18.44058318	      3.07582491	     -2.50536641	      0.00000000	    -44.91625455	     -6.13083485	      5.55878060
      4.41000000	      3.13425493	    -24.67876229	    -96.30890582	     -0.21266266	      0.96716511	     -3.38300305	    -16.69778849	    -14.61940630	     -6.29300840	    -59.53469878	    -13.18319379	     -1.52391634	      0.00000000	     -7.61491478	      7.15450690	     -8.20737287	    -17.85151177	      3.41292870	     -3.55759962	      0.00000000	    -44.76869004	     -5.93600031	      5.71545460
      4.42000000	      2.74858760	    -24.39660571	    -96.86187592	     -0.21233910	      0.96965452	     -3.36827536	    -14.11518734	    -14.20146969	     -5.14319374	    -60.95066342	    -10.93921371	     -1.99451655	      0.00000000	     -8.72830389	      7.19552951	     -7.80147591	    -17.12009174	      3.71964647	     -4.58672717	      0.00000000	    -44.52336804	     -5.76133242	      5.86517696
      4.43000000	      2.44625328	    -24.08455885	    -97.38647143	     -0.21205982	      0.97185940	     -3.35371468	    -11.58781193	    -13.82263721	     -4.14169669	    -62.00543348	     -9.13542017	     -2.32185897	      0.00000000	     -9.85897498	      7.29690150	     -7.51677531	    -16.25884881	      4.01489762	     -5.45028096	      0.00000000	    -44.22532805	     -5.64366391	      5.97358024
      4.44000000	      2.20942322	    -23.78870867	    -97.88660687	     -0.21188264	      0.97383268	     -3.33931712	     -9.19227109	    -13.46423446	     -3.27875775	    -62.69223029	     -7.69327794	     -2.55437770	      0.00000000	    -11.04976460	      7.43169135	     -7.44528381	    -15.28160321	      4.28756136	     -6.00900739	      0.00000000	    -43.92360083	     -5.58112493	      6.01604937
      4.45000000	      1.99019483	    -23.54366623	    -98.32538720	     -0.21177740	      0.97567401	     -3.32493843	     -7.02184495	    -13.08156119	     -2.61678118	    -62.98013554	     -6.43689245	     -2.66685699	      0.00000000	    -12.34459526	      7.54683113	     -7.58943320	    -14.20623601	      4.56217802	     -6.20956706	      0.00000000	    -43.65384449	     -5.50684627	      6.01449121
